<?xml version="1.0" standalone="no"?>
<!DOCTYPE svg PUBLIC "-//W3C//DTD SVG 20010904//EN"
 "http://www.w3.org/TR/2001/REC-SVG-20010904/DTD/svg10.dtd">
<svg version="1.0" xmlns="http://www.w3.org/2000/svg"
 width="200.000000pt" height="100.000000pt" viewBox="0 0 200.000000 100.000000"
 preserveAspectRatio="xMidYMid meet">
<metadata>
Created by potrace 1.10, written by Peter Selinger 2001-2011
</metadata>
<g transform="translate(0.000000,100.000000) scale(0.100000,-0.100000)"
fill="#8ec5ff" stroke="none">
<path d="M533 673 c-13 -2 -23 -9 -23 -14 0 -6 5 -7 10 -4 21 13 21 -27 -1
-100 -12 -42 -26 -78 -31 -81 -21 -13 -4 -21 40 -18 29 2 46 7 44 14 -1 7 9
49 24 95 15 45 24 90 21 99 -6 16 -34 19 -84 9z"/>
<path d="M917 673 c-12 -11 -7 -41 7 -46 21 -8 50 17 43 37 -6 16 -38 22 -50
9z"/>
<path d="M1032 664 c-12 -8 -22 -24 -22 -35 0 -10 -7 -19 -15 -19 -17 0 -19
-12 -5 -26 11 -11 -10 -85 -31 -110 -13 -16 -3 -20 46 -18 27 1 40 6 40 15 1
40 30 112 47 117 23 6 23 22 0 22 -27 0 -33 10 -20 33 l11 21 8 -22 c10 -26
47 -30 56 -6 14 38 -71 59 -115 28z"/>
<path d="M75 650 c-17 -7 -17 -9 -2 -9 22 -1 21 -20 -1 -96 -13 -43 -25 -63
-43 -72 -27 -14 -24 -15 59 -16 34 0 46 3 44 13 -2 7 0 26 3 41 6 24 12 29 36
29 27 0 30 -3 23 -22 -3 -13 -13 -30 -21 -40 -18 -20 -10 -24 47 -23 37 1 44
4 42 18 -4 22 36 154 48 162 25 16 6 26 -42 23 -52 -3 -53 -3 -50 -33 3 -41
-10 -57 -42 -53 l-27 3 21 40 c11 21 20 41 20 42 0 7 -97 1 -115 -7z"/>
<path d="M375 611 c-46 -20 -75 -84 -55 -122 28 -51 140 -40 140 14 0 1 -16 2
-37 2 -20 0 -38 6 -40 13 -3 8 7 12 34 12 22 0 44 5 51 12 13 13 16 54 4 62
-17 10 -78 15 -97 7z m45 -29 c0 -15 -28 -47 -35 -40 -8 8 13 48 25 48 6 0 10
-4 10 -8z"/>
<path d="M758 613 c-10 -2 -18 -9 -18 -15 0 -7 -5 -6 -14 1 -8 7 -30 11 -48 9
-25 -2 -32 -7 -30 -20 3 -21 -36 -158 -50 -175 -8 -10 1 -13 41 -13 45 0 52 2
47 18 -8 26 5 37 48 38 54 1 86 38 86 99 0 34 -5 47 -19 55 -11 5 -21 9 -23 9
-2 -1 -11 -3 -20 -6z m-13 -75 c-7 -34 -30 -66 -40 -56 -11 11 18 88 32 88 11
0 13 -8 8 -32z"/>
<path d="M1251 611 c-14 -9 -17 -36 -7 -72 5 -17 3 -29 -8 -38 -13 -11 -16 -7
-21 26 -13 82 -14 83 -45 83 -36 0 -70 -39 -45 -53 9 -5 15 -22 15 -42 0 -22
8 -43 20 -55 18 -18 19 -21 4 -27 -10 -4 -20 0 -26 10 -11 21 -47 22 -54 2
-16 -40 50 -59 104 -31 56 29 102 101 102 159 0 35 -17 51 -39 38z"/>
<path d="M865 601 c-3 -5 -1 -12 4 -15 10 -7 -14 -93 -30 -110 -17 -19 -8 -24
39 -21 34 3 46 7 44 18 -1 8 5 33 13 57 24 69 21 80 -24 80 -22 0 -42 -4 -46
-9z"/>
<path d="M1262 430 c-12 -12 -22 -29 -22 -38 0 -10 -5 -23 -12 -30 -15 -15 -6
-15 26 0 14 6 29 20 32 32 7 23 22 36 42 36 7 0 10 -5 6 -12 -4 -7 -3 -8 4 -4
7 4 12 4 13 -1 0 -4 2 -16 4 -25 4 -22 -13 -36 -84 -71 -56 -27 -46 -31 16 -6
29 12 37 11 62 -4 42 -24 52 -21 13 4 -32 21 -32 22 -12 36 11 8 24 11 30 8 5
-3 3 7 -5 22 -8 15 -15 34 -15 41 0 12 -39 32 -64 32 -7 0 -22 -9 -34 -20z
m47 6 c-2 -2 -15 -9 -29 -16 -23 -12 -24 -12 -11 3 7 10 20 17 29 17 8 0 13
-2 11 -4z"/>
</g>
</svg>
