 <svg  version="1.0" xmlns="http://www.w3.org/2000/svg"  width="200.000000pt" height="100.000000pt" viewBox="0 0 200.000000 100.000000"  preserveAspectRatio="xMidYMid meet">  <g transform="translate(0.000000,100.000000) scale(0.100000,-0.100000)" fill="#8ec5ff" stroke="none"> <path d="M891 671 c-7 -5 -10 -14 -7 -20 10 -15 -42 -181 -56 -181 -7 0 -8 -3 -2 -8 5 -5 30 -7 56 -4 34 3 45 8 41 18 -2 7 7 50 22 95 14 45 24 88 21 95 -6 16 -53 19 -75 5z"/> <path d="M1256 663 c-5 -11 -1 -22 9 -30 23 -16 47 -5 43 21 -4 27 -43 34 -52 9z"/> <path d="M1370 660 c-11 -11 -20 -27 -20 -35 0 -8 -7 -15 -15 -15 -12 0 -13 -4 -3 -19 9 -14 8 -29 -2 -65 -7 -26 -17 -49 -21 -52 -22 -13 -5 -21 39 -19 30 1 46 7 44 14 -5 24 30 121 44 121 8 0 14 5 14 10 0 6 -9 10 -20 10 -21 0 -24 8 -14 34 8 20 24 21 24 2 0 -8 5 -18 10 -21 15 -10 50 5 50 20 0 37 -97 48 -130 15z"/> <path d="M437 654 c-3 -3 -3 -12 -1 -19 7 -16 -33 -152 -46 -160 -6 -3 -10 -10 -10 -14 0 -7 22 -8 101 -1 3 0 4 12 2 28 -5 37 9 54 40 50 27 -3 27 -1 -4 -72 -2 -5 17 -10 44 -11 45 -2 47 -1 47 24 0 39 29 133 47 153 14 16 14 18 0 23 -8 4 -32 5 -53 3 -31 -2 -39 -7 -40 -23 -3 -64 -3 -65 -35 -65 -27 0 -30 3 -23 23 3 12 13 29 20 38 8 9 11 19 7 22 -8 9 -87 9 -96 1z"/> <path d="M722 613 c-28 -5 -62 -58 -62 -94 0 -56 85 -85 130 -44 30 27 25 34 -20 28 -33 -5 -40 -3 -40 11 0 11 9 16 31 16 85 0 96 72 13 84 -16 2 -39 2 -52 -1z m38 -37 c0 -7 -7 -19 -15 -26 -16 -13 -20 -3 -9 24 8 20 24 21 24 2z"/> <path d="M1092 604 c-12 -8 -22 -10 -22 -5 0 6 -18 11 -40 11 -37 0 -40 -2 -36 -22 6 -29 -45 -173 -61 -173 -6 0 -15 -3 -19 -7 -4 -5 22 -8 57 -8 64 0 65 0 64 28 0 23 4 26 24 24 56 -8 111 46 111 111 0 22 -31 57 -50 57 -3 0 -16 -7 -28 -16z m-6 -77 c-7 -25 -19 -43 -29 -45 -15 -3 -15 0 -2 38 18 52 24 62 35 55 5 -3 3 -24 -4 -48z"/> <path d="M1597 609 c-19 -11 -23 -49 -6 -66 8 -8 8 -17 -1 -32 -15 -29 -30 -17 -30 25 0 47 -16 74 -44 74 -28 0 -66 -38 -49 -48 7 -4 15 -27 19 -50 4 -24 13 -50 20 -57 11 -10 11 -16 3 -21 -7 -4 -17 0 -24 9 -19 27 -55 22 -55 -7 0 -41 61 -49 115 -16 65 40 118 159 83 187 -9 8 -19 8 -31 2z"/> <path d="M1215 590 c7 -24 -22 -120 -36 -120 -6 0 -8 -4 -5 -8 2 -4 26 -7 53 -6 40 0 47 4 45 18 -2 10 4 39 13 66 9 27 14 54 10 60 -3 5 -24 10 -46 10 -36 0 -40 -2 -34 -20z"/> <path d="M1616 437 c-10 -8 -24 -29 -31 -49 -11 -33 -10 -35 7 -30 11 2 27 16 36 31 9 14 21 29 27 33 14 11 37 10 30 -1 -3 -5 -1 -12 5 -16 6 -4 8 -11 5 -16 -4 -5 -1 -9 6 -9 25 0 -14 -30 -74 -57 -33 -15 -55 -29 -48 -31 6 -2 23 3 36 12 31 20 54 20 83 0 13 -9 26 -13 29 -10 3 3 -6 11 -21 17 -14 7 -26 15 -26 19 0 15 29 32 41 24 9 -5 10 -2 5 12 -5 10 -12 31 -18 45 -13 37 -59 50 -92 26z m19 -13 c-11 -8 -20 -19 -20 -24 0 -4 -3 -11 -7 -15 -3 -4 -6 0 -4 8 3 20 26 47 40 47 6 0 2 -7 -9 -16z"/> </g> </svg> 